<?xml version="1.0" encoding="utf-8"?>
<svg viewBox="256.778 229.554 138.487 40.688" xmlns="http://www.w3.org/2000/svg">
  <path id="Union_25" data-name="Union 25" d="M 299.413 263.763 C 299.381 263.69 299.365 263.611 299.367 263.531 C 299.36 263.298 299.498 263.085 299.713 262.996 L 303.233 261.63 C 303.497 261.522 303.798 261.647 303.908 261.91 L 303.908 261.921 C 304.914 264.269 307.255 265.76 309.808 265.68 C 311.357 265.73 312.859 265.148 313.969 264.067 C 315.083 262.866 315.672 261.269 315.606 259.632 L 315.606 256.009 L 315.13 256.809 C 314.536 257.835 313.66 258.668 312.606 259.209 C 311.429 259.775 310.133 260.052 308.827 260.015 C 307.948 260.015 307.073 259.906 306.221 259.688 C 304.644 259.264 303.193 258.462 301.994 257.353 L 301.904 257.284 C 299.955 255.519 298.983 252.992 298.986 249.704 C 298.986 246.377 299.986 243.798 302.029 241.942 C 302.788 241.236 303.647 240.645 304.577 240.188 C 306.005 239.506 307.571 239.159 309.154 239.175 C 310.406 239.135 311.649 239.39 312.784 239.92 C 313.761 240.407 314.563 241.187 315.077 242.15 L 315.549 243.003 L 315.549 240.224 C 315.54 239.578 316.054 239.047 316.699 239.033 L 319.336 239.033 C 319.985 239.052 320.5 239.584 320.5 240.233 L 320.511 259.233 C 320.673 262.225 319.495 265.133 317.297 267.169 C 315.125 269.044 312.336 270.051 309.467 269.996 C 305.158 270.164 301.179 267.697 299.413 263.763 Z M 308.726 243.463 C 307.496 243.58 306.349 244.14 305.501 245.039 C 304.401 246.325 303.835 247.984 303.921 249.674 C 303.833 251.358 304.417 253.008 305.545 254.261 C 305.956 254.678 306.438 255.019 306.968 255.267 C 307.762 255.634 308.627 255.821 309.502 255.815 C 311.077 255.835 312.597 255.235 313.733 254.144 C 314.915 252.926 315.56 251.286 315.522 249.589 C 315.578 247.899 314.934 246.261 313.743 245.06 C 312.603 243.978 311.084 243.386 309.513 243.413 C 309.46 243.413 309.407 243.413 309.354 243.413 C 309.143 243.414 308.932 243.43 308.723 243.46 L 308.726 243.463 Z M 380.605 258.882 C 379.208 258.336 377.954 257.478 376.94 256.372 C 376.721 256.108 376.732 255.723 376.965 255.472 L 379.228 253.072 C 379.341 252.942 379.506 252.869 379.679 252.872 C 379.865 252.87 380.043 252.952 380.163 253.094 C 381.746 254.927 384.071 255.947 386.491 255.872 C 387.328 255.92 388.163 255.763 388.925 255.414 C 389.494 255.136 389.85 254.554 389.839 253.921 C 389.853 253.592 389.767 253.267 389.591 252.988 C 389.252 252.557 388.78 252.25 388.249 252.113 C 387.405 251.859 386.547 251.652 385.68 251.492 C 384.641 251.271 384.043 251.165 383.48 251.013 C 382.781 250.82 382.095 250.582 381.427 250.301 C 380.733 250.053 380.091 249.678 379.534 249.196 C 378.428 248.079 377.811 246.568 377.818 244.996 C 377.686 243.077 378.551 241.226 380.107 240.096 C 381.823 238.975 383.845 238.416 385.893 238.496 C 388.464 238.417 390.989 239.19 393.075 240.696 C 393.244 240.816 393.341 241.012 393.335 241.219 C 393.336 241.372 393.285 241.52 393.19 241.64 L 391.36 243.954 C 391.152 244.218 390.77 244.263 390.507 244.054 C 389.241 243.095 387.695 242.579 386.107 242.583 C 385.211 242.527 384.32 242.752 383.558 243.226 C 383.034 243.6 382.724 244.205 382.725 244.849 L 382.725 244.896 C 382.782 245.296 382.949 245.672 383.209 245.982 C 383.643 246.427 384.194 246.739 384.799 246.882 C 385.608 247.108 386.427 247.292 387.255 247.434 L 387.774 247.525 C 389.114 247.707 390.424 248.061 391.674 248.578 C 392.268 248.823 392.823 249.153 393.321 249.559 C 394.267 250.52 394.791 251.818 394.777 253.166 C 394.838 255.147 393.891 257.025 392.261 258.153 C 390.464 259.432 388.298 260.088 386.093 260.02 C 384.206 260.006 382.341 259.62 380.605 258.882 Z M 356.835 258.159 C 355.478 256.692 354.774 254.736 354.885 252.74 L 354.885 236.65 C 354.891 235.654 355.278 234.697 355.966 233.977 L 358.402 231.456 C 358.865 230.985 359.664 231.191 359.841 231.827 C 359.864 231.911 359.875 231.997 359.872 232.084 L 359.872 239.044 L 364.372 239.044 C 364.929 239.055 365.371 239.515 365.362 240.072 L 365.362 242.372 C 365.371 242.928 364.928 243.386 364.372 243.396 L 359.872 243.396 L 359.872 252.621 C 359.82 253.484 360.129 254.33 360.725 254.956 C 361.306 255.493 362.079 255.774 362.869 255.737 C 363.661 255.732 364.441 255.541 365.145 255.178 C 365.212 255.145 365.285 255.129 365.359 255.131 C 365.536 255.134 365.697 255.233 365.779 255.389 L 367.079 257.863 C 367.114 257.941 367.137 258.025 367.146 258.11 C 367.141 258.292 367.043 258.459 366.886 258.553 C 365.338 259.489 363.564 259.988 361.755 259.996 C 359.936 260.062 358.166 259.401 356.836 258.159 L 356.835 258.159 Z M 292.44 259.596 C 291.808 259.58 291.307 259.06 291.313 258.428 L 291.313 240.202 C 291.308 239.57 291.809 239.05 292.44 239.032 L 295.182 239.032 C 295.814 239.049 296.315 239.57 296.307 240.202 L 296.307 258.428 C 296.315 259.06 295.814 259.581 295.182 259.596 L 292.44 259.596 Z M 370.729 259.585 C 369.942 259.572 369.314 258.923 369.329 258.136 L 369.329 240.496 C 369.31 239.705 369.938 239.05 370.729 239.036 L 372.903 239.036 C 373.694 239.053 374.323 239.705 374.313 240.496 L 374.313 258.134 C 374.319 258.921 373.69 259.567 372.903 259.583 L 370.729 259.585 Z M 347.5 259.585 C 346.713 259.572 346.085 258.923 346.1 258.136 L 346.1 240.496 C 346.081 239.705 346.709 239.05 347.5 239.036 L 349.674 239.036 C 350.463 239.054 351.089 239.707 351.074 240.496 L 351.074 258.134 C 351.088 258.921 350.461 259.57 349.674 259.583 L 347.5 259.585 Z M 338.522 259.585 C 337.986 259.571 337.56 259.129 337.565 258.593 L 337.565 247.662 C 337.65 246.379 337.313 245.104 336.607 244.03 C 335.91 243.174 334.845 242.706 333.743 242.77 C 332.357 242.727 331.04 243.373 330.226 244.496 C 329.375 245.784 328.952 247.308 329.02 248.851 L 329.02 258.215 C 329.032 258.951 328.446 259.557 327.71 259.57 L 325.354 259.57 C 324.619 259.557 324.033 258.95 324.045 258.215 L 324.045 240.224 C 324.037 239.578 324.552 239.046 325.198 239.033 L 327.835 239.033 C 328.48 239.048 328.992 239.579 328.984 240.224 L 328.984 242.28 L 329.457 241.543 C 330.739 239.532 333.009 238.372 335.39 238.51 C 337.318 238.446 339.182 239.201 340.522 240.588 C 341.923 242.201 342.65 244.291 342.55 246.425 L 342.55 258.225 C 342.562 258.96 341.976 259.567 341.241 259.58 L 338.522 259.585 Z M 370.47 235.485 C 369.849 235.474 369.353 234.962 369.362 234.341 L 369.362 231.141 C 369.354 230.52 369.849 230.008 370.47 229.996 L 373.17 229.996 C 373.791 230.009 374.285 230.519 374.277 231.14 L 374.277 234.34 C 374.286 234.961 373.791 235.473 373.17 235.484 L 370.47 235.485 Z M 347.241 235.485 C 346.616 235.482 346.115 234.965 346.133 234.34 L 346.133 231.14 C 346.126 230.519 346.62 230.009 347.241 229.996 L 349.941 229.996 C 350.563 230.006 351.06 230.518 351.053 231.14 L 351.053 234.34 C 351.061 234.961 350.566 235.472 349.945 235.484 L 347.241 235.485 Z M 292.463 235.485 C 291.842 235.474 291.347 234.961 291.356 234.34 L 291.356 231.14 C 291.348 230.519 291.842 230.009 292.463 229.996 L 295.163 229.996 C 295.785 230.006 296.281 230.518 296.273 231.14 L 296.273 234.34 C 296.282 234.961 295.788 235.473 295.167 235.484 L 292.463 235.485 Z" fill="#24345f" transform="matrix(1, 0, 0, 1, 0, -2.842170943040401e-14)"/>
  <path id="svg_3" d="M 260.924 236.208 C 260.509 235.776 259.817 235.776 259.402 236.208 L 257.541 238.134 C 257.124 238.576 257.124 239.267 257.541 239.71 L 263.777 246.167 C 264.192 246.599 264.884 246.599 265.299 246.167 L 267.161 244.24 C 267.578 243.797 267.578 243.106 267.161 242.664 L 260.924 236.208 Z" fill="#00d3b7" style="transform-origin: 262.329px 241.186px;" transform="matrix(1, 0, 0, 1, 0, 1.5e-11)"/>
  <path id="svg_4" d="M 278.074 236.208 C 277.659 235.776 276.968 235.776 276.552 236.208 L 270.317 242.665 C 269.9 243.107 269.9 243.798 270.317 244.241 L 272.177 246.168 C 272.593 246.6 273.284 246.6 273.699 246.168 L 279.937 239.71 C 280.354 239.267 280.354 238.576 279.937 238.134 L 278.074 236.208 Z" fill="#00dadc" transform="matrix(1, 0, 0, 1, 0, -2.842170943040401e-14)"/>
  <path id="svg_5" d="M 265.299 249.261 C 264.884 248.829 264.192 248.829 263.777 249.261 L 257.541 255.718 C 257.124 256.161 257.124 256.852 257.541 257.294 L 259.401 259.221 C 259.816 259.653 260.508 259.653 260.923 259.221 L 267.159 252.764 C 267.576 252.322 267.576 251.631 267.159 251.188 L 265.299 249.261 Z" fill="#928df2" transform="matrix(1, 0, 0, 1, 0, -2.842170943040401e-14)"/>
  <path id="svg_6" d="M 273.689 249.261 C 273.273 248.829 272.582 248.829 272.167 249.261 L 270.307 251.187 C 269.89 251.63 269.89 252.321 270.307 252.763 L 276.543 259.22 C 276.958 259.652 277.649 259.652 278.065 259.22 L 279.926 257.293 C 280.343 256.851 280.343 256.16 279.926 255.717 L 273.689 249.261 Z" fill="#4057e3" transform="matrix(1, 0, 0, 1, 0, -2.842170943040401e-14)"/>
  <path id="svg_7" d="M 267.387 235.495 L 270.093 235.495 C 270.713 235.483 271.207 234.972 271.198 234.351 L 271.198 231.14 C 271.207 230.52 270.713 230.008 270.093 229.996 L 267.387 229.996 C 266.766 230.008 266.272 230.52 266.282 231.14 L 266.282 234.34 C 266.264 234.966 266.761 235.485 267.387 235.495 Z" fill="#24345f" transform="matrix(1, 0, 0, 1, 0, -2.842170943040401e-14)"/>
</svg>